<svg version="1.1" id="Layer_1"
  xmlns="http://www.w3.org/2000/svg" width="1594" height="564"
  xmlns:xlink="http://www.w3.org/1999/xlink" x="0px" y="0px" viewBox="0 0 1594 564" enable-background="new 0 0 1594 564" xml:space="preserve">
  <path fill="#FFFFFF" opacity="1.000000" stroke="none" d="
M1017.000000,565.000000 
	C678.039185,565.000000 339.578369,565.000000 1.058773,565.000000 
	C1.058773,377.060974 1.058773,189.121902 1.058773,1.091415 
	C532.210876,1.091415 1063.421753,1.091415 1594.816406,1.091415 
	C1594.816406,188.999863 1594.816406,376.999908 1594.816406,565.000000 
	C1402.455200,565.000000 1209.977539,565.000000 1017.000000,565.000000 
M256.529846,396.020264 
	C279.192810,390.489410 299.620361,380.240845 318.063873,366.135193 
	C334.792023,353.341461 350.945099,339.827667 358.333160,319.063416 
	C361.559509,309.995728 364.116058,300.685150 366.790375,291.431061 
	C367.144470,290.205750 366.392609,288.660858 366.152954,287.263977 
	C364.675110,287.744293 362.969055,287.914612 361.781342,288.789001 
	C360.503693,289.729614 359.417145,291.202698 358.779114,292.674133 
	C357.862701,294.787262 357.751526,297.282867 356.677979,299.283264 
	C355.911835,300.710846 354.233917,302.238342 352.760956,302.477478 
	C351.870026,302.622101 349.783051,300.475647 349.651764,299.211243 
	C349.337372,296.183594 349.195953,292.841492 350.157562,290.027008 
	C355.481476,274.444489 356.939850,258.622986 353.890930,242.442215 
	C353.624084,241.026016 352.496826,238.962234 351.428131,238.722977 
	C350.238525,238.456680 348.283386,239.619553 347.345062,240.735199 
	C346.224243,242.067795 345.610168,243.953690 345.160156,245.698822 
	C343.957184,250.363983 343.284882,255.186905 341.812805,259.757477 
	C338.666748,269.525452 336.592163,279.849609 328.941864,287.546326 
	C318.955811,297.592957 308.968719,307.638641 298.961914,317.664612 
	C283.585022,333.070984 265.528137,344.022034 244.462402,349.629822 
	C235.176041,352.101868 225.702011,354.745300 215.964737,352.117371 
	C204.423767,349.002625 192.740768,346.212097 181.508301,342.193756 
	C145.927124,329.464661 122.150337,305.239929 111.673897,268.543579 
	C107.757240,254.824554 105.534027,240.860382 107.385406,226.644470 
	C110.349571,203.883987 119.418930,183.510193 132.953644,165.082825 
	C143.286331,151.014984 156.692749,141.070663 173.108276,135.020630 
	C191.280106,128.323288 209.851746,126.695541 229.055893,128.800613 
	C261.930725,132.404221 289.205658,145.865753 309.426117,172.545609 
	C320.122467,186.658905 326.968262,202.686920 332.951691,219.171341 
	C333.683167,221.186569 334.858459,223.040741 336.286041,225.880569 
	C337.196564,223.768768 337.652618,222.913910 337.942780,222.006042 
	C340.267609,214.731522 336.841797,208.257050 334.820587,201.692596 
	C327.524139,177.995590 314.708496,158.047119 294.606140,143.030502 
	C278.999542,131.372284 261.554596,123.932091 242.747574,119.371841 
	C240.040253,118.715378 237.021957,117.574883 238.169693,114.170723 
	C239.208420,111.089920 241.202133,108.214172 245.629456,109.652626 
	C253.527634,112.218788 261.639557,114.177544 269.419037,117.048782 
	C289.938354,124.622009 307.860504,136.393005 321.762146,153.294067 
	C329.844238,163.119949 336.451965,174.184280 343.423309,184.886612 
	C346.702637,189.921005 348.326294,190.888550 354.216095,188.684692 
	C353.757904,187.338516 353.498352,185.861282 352.799591,184.634140 
	C346.144501,172.946426 340.219910,160.737732 332.537933,149.761810 
	C316.909882,127.432625 296.084778,111.125908 270.694397,100.952141 
	C245.788849,90.972641 219.730942,88.191978 193.249725,90.337135 
	C177.323822,91.627243 161.822189,95.544464 147.183578,102.454018 
	C124.471649,113.174232 105.352554,128.460724 89.905006,148.088791 
	C82.540390,157.446487 75.664490,167.413208 70.117180,177.922226 
	C62.499371,192.353699 60.104412,208.424423 58.754570,224.622101 
	C56.322659,253.804138 59.385815,282.062103 72.061913,308.829987 
	C79.889832,325.360046 91.731445,338.766937 104.732132,351.358063 
	C118.429726,364.624146 133.062454,376.578827 150.047607,385.420471 
	C164.262695,392.820160 179.665390,396.231628 195.356079,398.539948 
	C215.613831,401.520081 235.754379,400.925354 256.529846,396.020264 
M614.512939,242.808411 
	C605.926697,245.637924 604.123291,252.610260 610.909912,259.199280 
	C623.442688,271.367126 636.288696,283.221619 649.306946,294.868195 
	C650.894958,296.288879 654.735474,296.600159 656.856750,295.746826 
	C662.726929,293.385406 663.530029,286.256165 658.662354,280.675873 
	C654.291504,275.665161 649.516602,271.003723 644.863647,266.243256 
	C637.746521,258.961823 637.833984,259.114319 645.672485,252.717804 
	C655.711853,244.525345 661.469482,234.347015 659.046936,220.881821 
	C655.803528,202.854660 637.174072,189.243073 614.399780,192.689026 
	C610.216064,193.322067 607.697449,196.383087 607.246521,200.620331 
	C606.750732,205.278442 608.732300,209.053543 613.204163,210.426620 
	C616.254700,211.363327 619.729736,211.152618 623.005798,211.073700 
	C631.132874,210.877869 638.408325,216.293381 639.824646,223.834381 
	C641.228333,231.307465 636.719055,238.575470 628.603760,240.830612 
	C624.336243,242.016495 619.759766,242.090363 614.512939,242.808411 
M1321.477905,197.013062 
	C1313.530396,195.416794 1305.636963,193.408554 1297.618042,192.356659 
	C1291.379883,191.538345 1287.518311,195.393982 1287.418579,201.185242 
	C1287.319214,206.949326 1290.957520,210.461472 1297.222656,210.791275 
	C1300.864746,210.983002 1304.597290,210.908752 1308.115234,211.713776 
	C1316.254028,213.576248 1321.200562,221.589706 1320.162354,230.491821 
	C1319.320190,237.713318 1313.452637,242.209686 1304.723877,242.300247 
	C1301.893921,242.329605 1299.062134,242.367447 1296.233398,242.303802 
	C1291.951416,242.207458 1288.834839,243.890427 1287.179688,247.959610 
	C1285.518188,252.044418 1287.441162,254.909424 1290.243164,257.661835 
	C1302.476440,269.678223 1314.632446,281.773315 1326.834961,293.821075 
	C1330.744019,297.680573 1336.213867,297.708466 1340.083374,293.958344 
	C1343.682129,290.470642 1343.602783,285.044220 1339.757812,281.139587 
	C1333.917358,275.208466 1327.987793,269.365326 1322.112671,263.468140 
	C1317.697632,259.036377 1317.698975,258.533997 1322.777954,254.825989 
	C1328.895630,250.359650 1334.507080,245.404663 1337.606201,238.320480 
	C1343.814453,224.129227 1337.042480,206.331650 1321.477905,197.013062 
M849.222351,263.274780 
	C859.274780,273.004517 869.317566,282.744263 879.392334,292.450806 
	C880.583923,293.598907 881.844055,294.745148 883.256470,295.581512 
	C887.175476,297.902069 891.056091,297.428680 894.302124,294.401001 
	C897.569153,291.353607 898.212830,287.432709 896.156250,283.446442 
	C895.188354,281.570465 893.676392,279.892242 892.139404,278.405182 
	C864.131897,251.306442 836.088684,224.244614 808.025391,197.203720 
	C806.718750,195.944702 805.272522,194.730988 803.684814,193.882553 
	C799.624512,191.712723 795.809326,192.610016 792.765442,195.800766 
	C789.658936,199.057129 789.326782,203.020508 791.701843,206.815491 
	C793.002258,208.893372 794.906189,210.629745 796.690674,212.362900 
	C814.014343,229.187698 831.370361,245.979172 849.222351,263.274780 
M506.115173,251.618576 
	C518.372314,242.819351 520.494629,225.960052 516.027710,214.768692 
	C511.327179,202.992157 501.430695,197.416580 490.177032,193.859512 
	C485.492981,192.378967 480.441742,191.313919 475.571442,191.365982 
	C470.041168,191.425110 465.093933,197.474380 465.277161,202.422379 
	C465.450836,207.112518 469.595032,210.274384 475.958466,210.730652 
	C478.938477,210.944305 481.938416,211.203232 484.865570,211.770508 
	C493.577332,213.458847 498.225952,218.682343 498.273712,226.570297 
	C498.322205,234.575241 493.779907,239.842575 485.044312,241.511658 
	C480.809113,242.320862 476.403137,242.327469 472.226349,243.330032 
	C465.997986,244.825012 463.790161,250.712845 467.008759,256.211792 
	C469.784698,260.954498 474.822113,263.776154 480.674194,261.935608 
	C489.156860,259.267700 497.254547,255.375748 506.115173,251.618576 
M1477.356934,247.845276 
	C1486.268921,237.570358 1487.782104,222.239990 1481.036499,210.566681 
	C1473.278809,197.141861 1456.760986,190.049347 1440.047974,192.966660 
	C1435.104980,193.829468 1432.183838,197.399216 1432.342285,202.383087 
	C1432.489136,207.008636 1435.073608,209.267410 1440.430786,210.070602 
	C1445.832886,210.880508 1451.338257,211.553085 1456.511353,213.192062 
	C1462.540039,215.102158 1465.357666,219.941010 1465.364868,226.288254 
	C1465.372192,232.685181 1463.123047,238.021576 1456.698730,239.999115 
	C1451.524902,241.591766 1446.039429,242.316559 1440.637939,242.990036 
	C1433.422241,243.889725 1429.614624,250.570343 1433.933105,256.231140 
	C1435.680298,258.521515 1439.407104,260.156555 1442.409668,260.487213 
	C1455.709595,261.951721 1467.476807,258.347839 1477.356934,247.845276 
M1122.582031,291.768707 
	C1123.082397,289.527252 1124.009888,287.287415 1124.018311,285.044128 
	C1124.119385,257.915924 1124.130371,230.787125 1124.055298,203.658768 
	C1124.035278,196.443756 1120.358643,192.539810 1114.058228,192.490479 
	C1108.048828,192.443436 1103.792358,196.597153 1103.753662,203.532639 
	C1103.601440,230.826584 1103.682495,258.121887 1103.701172,285.416687 
	C1103.704590,290.407898 1105.948242,294.180450 1110.622437,295.953918 
	C1115.187256,297.685852 1119.094727,296.161438 1122.582031,291.768707 
M570.603516,291.671234 
	C573.213013,296.202911 577.241943,297.706360 582.065918,296.336487 
	C587.026489,294.927795 589.190308,291.000000 589.266174,286.081177 
	C589.397156,277.590973 589.297607,269.096680 589.255310,260.604340 
	C589.160767,241.622391 589.078735,222.640228 588.914795,203.658829 
	C588.849548,196.101120 584.762207,192.003021 578.045349,192.487961 
	C572.429688,192.893402 569.102539,197.113251 569.110962,204.149902 
	C569.143127,230.959946 569.216797,257.769989 569.348389,284.579712 
	C569.358826,286.709839 569.930908,288.837189 570.603516,291.671234 
M963.557617,192.117233 
	C961.391724,192.130188 959.215881,192.014694 957.061768,192.180954 
	C951.344421,192.622269 947.415894,196.547211 947.386414,201.692535 
	C947.358337,206.588058 951.052795,210.457474 956.566772,211.185715 
	C958.044312,211.380859 959.558411,211.340973 961.055664,211.337814 
	C976.884155,211.304398 992.712830,211.280304 1008.541138,211.205032 
	C1020.702698,211.147202 1032.863770,210.994415 1045.025391,210.936890 
	C1049.472412,210.915848 1052.188110,208.490067 1053.748657,204.665054 
	C1055.307861,200.843170 1054.406372,196.972855 1051.288330,194.720764 
	C1048.955322,193.035599 1045.487427,192.246399 1042.516602,192.225250 
	C1016.525696,192.040100 990.532898,192.117706 963.557617,192.117233 
M1249.591064,204.028717 
	C1249.510986,230.349503 1249.413086,256.670258 1249.381348,282.991089 
	C1249.378540,285.298676 1249.573975,287.661011 1250.090454,289.902740 
	C1251.014160,293.911713 1253.913940,296.777100 1257.801514,296.458557 
	C1261.078735,296.190002 1264.824829,294.523376 1267.153564,292.241150 
	C1268.775513,290.651703 1268.759399,286.976471 1268.776855,284.228577 
	C1268.944702,257.908569 1268.971313,231.587646 1269.008667,205.266937 
	C1269.011353,203.444153 1269.022461,201.562653 1268.605347,199.809402 
	C1267.507202,195.193420 1264.400024,192.622894 1259.687012,192.531647 
	C1255.052856,192.441940 1251.714355,194.666656 1250.266602,199.221573 
	C1249.867798,200.476074 1249.815308,201.840683 1249.591064,204.028717 
M427.794708,244.499588 
	C427.794617,249.822632 427.772491,255.145782 427.799316,260.468689 
	C427.845428,269.616028 427.770721,278.767792 428.044830,287.908722 
	C428.199463,293.065826 431.656586,296.400757 436.431793,296.764526 
	C441.389343,297.142242 445.354401,294.058777 446.319244,288.914612 
	C446.622650,287.297211 446.639923,285.610413 446.644440,283.954987 
	C446.716278,257.672913 446.768646,231.390808 446.809082,205.108688 
	C446.811615,203.449615 446.870239,201.755173 446.572510,200.137955 
	C445.771118,195.784897 441.658417,192.336304 437.351959,192.506073 
	C432.704681,192.689285 429.403168,194.950516 428.328308,199.632324 
	C427.851227,201.710327 427.823792,203.921158 427.816223,206.072479 
	C427.772400,218.548035 427.795258,231.023819 427.794708,244.499588 
M734.547119,253.500122 
	C734.546997,237.014969 734.567993,220.529755 734.537170,204.044662 
	C734.523376,196.640594 731.118774,192.530518 725.098267,192.478012 
	C719.053833,192.425308 715.541870,196.539825 715.535095,203.877197 
	C715.509949,231.019394 715.507690,258.161652 715.537415,285.303864 
	C715.545410,292.588837 719.158081,296.764954 725.175720,296.667084 
	C730.933655,296.573425 734.494629,292.391296 734.531433,285.472198 
	C734.586365,275.148438 734.546326,264.824188 734.547119,253.500122 
M1414.975586,274.494080 
	C1414.975586,261.020569 1414.976440,247.547043 1414.975464,234.073517 
	C1414.974609,223.760452 1415.072266,213.446060 1414.934082,203.134811 
	C1414.842041,196.263138 1410.994141,192.437637 1404.914429,192.723618 
	C1399.347656,192.985474 1396.052979,196.693680 1395.976318,203.157288 
	C1395.816528,216.628677 1395.767700,230.101517 1395.703369,243.573898 
	C1395.638184,257.213593 1395.512695,270.854095 1395.601685,284.492981 
	C1395.652954,292.356506 1399.100098,296.138428 1405.559692,296.022827 
	C1411.728149,295.912384 1414.884277,292.054077 1414.969116,284.472870 
	C1415.002686,281.479126 1414.975220,278.484680 1414.975586,274.494080 
M1007.808350,230.644653 
	C1004.180664,227.687637 1000.201599,227.328384 996.169922,229.507187 
	C992.365723,231.563110 991.426941,235.163345 991.431030,239.268112 
	C991.446472,254.924469 991.259338,270.581451 991.344482,286.237122 
	C991.379822,292.743774 995.284729,296.682007 1001.015320,296.636902 
	C1006.769470,296.591614 1010.409851,292.657349 1010.465271,286.141571 
	C1010.597107,270.652283 1010.754944,255.160950 1010.600647,239.673477 
	C1010.572510,236.845581 1009.117615,234.031891 1007.808350,230.644653 
M898.202087,227.433121 
	C898.110291,218.780014 898.347595,210.106369 897.809570,201.481094 
	C897.457581,195.838196 893.493469,192.751373 888.161743,192.675858 
	C882.753784,192.599243 878.430176,195.597244 878.238953,201.106567 
	C877.806519,213.561462 877.853149,226.054291 878.317749,238.508820 
	C878.509033,243.635269 883.034119,246.780502 887.989502,246.689896 
	C892.882812,246.600449 896.978943,243.316483 897.728882,238.357559 
	C898.222778,235.091217 898.066284,231.726562 898.202087,227.433121 
M1151.151733,211.341995 
	C1162.801270,211.345566 1174.452026,211.451309 1186.099854,211.315002 
	C1193.270508,211.231079 1197.205078,207.368561 1197.001709,201.116028 
	C1196.822021,195.592911 1192.664185,191.972824 1186.138794,191.959320 
	C1174.655884,191.935547 1163.171631,191.974548 1151.690308,192.147415 
	C1145.141724,192.246002 1141.427612,195.520432 1141.112793,201.029343 
	C1140.788330,206.709396 1143.706421,209.969849 1151.151733,211.341995 
M1154.646729,278.028961 
	C1145.789673,278.064819 1141.709961,281.057678 1141.710327,287.519012 
	C1141.710693,293.964081 1146.000122,297.207153 1154.602905,297.218506 
	C1165.247437,297.232544 1175.892700,297.295868 1186.536255,297.190155 
	C1193.511963,297.120819 1197.344849,293.584564 1197.362183,287.563690 
	C1197.379639,281.485840 1193.565674,278.074188 1186.545410,278.042511 
	C1176.233643,277.995941 1165.921631,278.029419 1154.646729,278.028961 
M806.649048,293.048920 
	C807.300232,291.196869 808.482056,289.354645 808.516663,287.491119 
	C808.741821,275.359833 808.876770,263.221619 808.703674,251.090500 
	C808.625793,245.633102 804.518982,242.080688 799.333374,242.141129 
	C794.053406,242.202667 790.380371,245.699295 790.247498,251.316010 
	C789.976440,262.780579 789.874695,274.250214 789.823608,285.718292 
	C789.804932,289.908478 790.985413,293.636444 795.189880,295.624695 
	C799.325073,297.580261 802.931580,296.587250 806.649048,293.048920 
M1181.900879,240.763077 
	C1180.271606,236.394791 1176.744141,234.851303 1172.482910,234.770874 
	C1165.679199,234.642456 1158.868042,234.594955 1152.066406,234.766327 
	C1145.517578,234.931335 1141.588623,238.609207 1141.438843,244.284576 
	C1141.286499,250.061432 1145.435303,254.109344 1152.039307,254.268448 
	C1158.675537,254.428329 1165.322144,254.444748 1171.957764,254.273514 
	C1180.092285,254.063583 1183.338257,249.844391 1181.900879,240.763077 
z"/>
  <path fill="#7FCDFF" opacity="1.000000" stroke="none" d="
M256.126984,396.110260 
	C235.754379,400.925354 215.613831,401.520081 195.356079,398.539948 
	C179.665390,396.231628 164.262695,392.820160 150.047607,385.420471 
	C133.062454,376.578827 118.429726,364.624146 104.732132,351.358063 
	C91.731445,338.766937 79.889832,325.360046 72.061913,308.829987 
	C59.385815,282.062103 56.322659,253.804138 58.754570,224.622101 
	C60.104412,208.424423 62.499371,192.353699 70.117180,177.922226 
	C75.664490,167.413208 82.540390,157.446487 89.905006,148.088791 
	C105.352554,128.460724 124.471649,113.174232 147.183578,102.454018 
	C161.822189,95.544464 177.323822,91.627243 193.249725,90.337135 
	C219.730942,88.191978 245.788849,90.972641 270.694397,100.952141 
	C296.084778,111.125908 316.909882,127.432625 332.537933,149.761810 
	C340.219910,160.737732 346.144501,172.946426 352.799591,184.634140 
	C353.498352,185.861282 353.757904,187.338516 354.216095,188.684692 
	C348.326294,190.888550 346.702637,189.921005 343.423309,184.886612 
	C336.451965,174.184280 329.844238,163.119949 321.762146,153.294067 
	C307.860504,136.393005 289.938354,124.622009 269.419037,117.048782 
	C261.639557,114.177544 253.527634,112.218788 245.629456,109.652626 
	C241.202133,108.214172 239.208420,111.089920 238.169693,114.170723 
	C237.021957,117.574883 240.040253,118.715378 242.747574,119.371841 
	C261.554596,123.932091 278.999542,131.372284 294.606140,143.030502 
	C314.708496,158.047119 327.524139,177.995590 334.820587,201.692596 
	C336.841797,208.257050 340.267609,214.731522 337.942780,222.006042 
	C337.652618,222.913910 337.196564,223.768768 336.286041,225.880569 
	C334.858459,223.040741 333.683167,221.186569 332.951691,219.171341 
	C326.968262,202.686920 320.122467,186.658905 309.426117,172.545609 
	C289.205658,145.865753 261.930725,132.404221 229.055893,128.800613 
	C209.851746,126.695541 191.280106,128.323288 173.108276,135.020630 
	C156.692749,141.070663 143.286331,151.014984 132.953644,165.082825 
	C119.418930,183.510193 110.349571,203.883987 107.385406,226.644470 
	C105.534027,240.860382 107.757240,254.824554 111.673897,268.543579 
	C122.150337,305.239929 145.927124,329.464661 181.508301,342.193756 
	C192.740768,346.212097 204.423767,349.002625 215.964737,352.117371 
	C225.702011,354.745300 235.176041,352.101868 244.462402,349.629822 
	C265.528137,344.022034 283.585022,333.070984 298.961914,317.664612 
	C308.968719,307.638641 318.955811,297.592957 328.941864,287.546326 
	C336.592163,279.849609 338.666748,269.525452 341.812805,259.757477 
	C343.284882,255.186905 343.957184,250.363983 345.160156,245.698822 
	C345.610168,243.953690 346.224243,242.067795 347.345062,240.735199 
	C348.283386,239.619553 350.238525,238.456680 351.428131,238.722977 
	C352.496826,238.962234 353.624084,241.026016 353.890930,242.442215 
	C356.939850,258.622986 355.481476,274.444489 350.157562,290.027008 
	C349.195953,292.841492 349.337372,296.183594 349.651764,299.211243 
	C349.783051,300.475647 351.870026,302.622101 352.760956,302.477478 
	C354.233917,302.238342 355.911835,300.710846 356.677979,299.283264 
	C357.751526,297.282867 357.862701,294.787262 358.779114,292.674133 
	C359.417145,291.202698 360.503693,289.729614 361.781342,288.789001 
	C362.969055,287.914612 364.675110,287.744293 366.152954,287.263977 
	C366.392609,288.660858 367.144470,290.205750 366.790375,291.431061 
	C364.116058,300.685150 361.559509,309.995728 358.333160,319.063416 
	C350.945099,339.827667 334.792023,353.341461 318.063873,366.135193 
	C299.620361,380.240845 279.192810,390.489410 256.126984,396.110260 
z"/>
  <path fill="#1C9BD3" opacity="1.000000" stroke="none" d="
M614.917847,242.737396 
	C619.759766,242.090363 624.336243,242.016495 628.603760,240.830612 
	C636.719055,238.575470 641.228333,231.307465 639.824646,223.834381 
	C638.408325,216.293381 631.132874,210.877869 623.005798,211.073700 
	C619.729736,211.152618 616.254700,211.363327 613.204163,210.426620 
	C608.732300,209.053543 606.750732,205.278442 607.246521,200.620331 
	C607.697449,196.383087 610.216064,193.322067 614.399780,192.689026 
	C637.174072,189.243073 655.803528,202.854660 659.046936,220.881821 
	C661.469482,234.347015 655.711853,244.525345 645.672485,252.717804 
	C637.833984,259.114319 637.746521,258.961823 644.863647,266.243256 
	C649.516602,271.003723 654.291504,275.665161 658.662354,280.675873 
	C663.530029,286.256165 662.726929,293.385406 656.856750,295.746826 
	C654.735474,296.600159 650.894958,296.288879 649.306946,294.868195 
	C636.288696,283.221619 623.442688,271.367126 610.909912,259.199280 
	C604.123291,252.610260 605.926697,245.637924 614.917847,242.737396 
z"/>
  <path fill="#1B9BD3" opacity="1.000000" stroke="none" d="
M1321.822510,197.153259 
	C1337.042480,206.331650 1343.814453,224.129227 1337.606201,238.320480 
	C1334.507080,245.404663 1328.895630,250.359650 1322.777954,254.825989 
	C1317.698975,258.533997 1317.697632,259.036377 1322.112671,263.468140 
	C1327.987793,269.365326 1333.917358,275.208466 1339.757812,281.139587 
	C1343.602783,285.044220 1343.682129,290.470642 1340.083374,293.958344 
	C1336.213867,297.708466 1330.744019,297.680573 1326.834961,293.821075 
	C1314.632446,281.773315 1302.476440,269.678223 1290.243164,257.661835 
	C1287.441162,254.909424 1285.518188,252.044418 1287.179688,247.959610 
	C1288.834839,243.890427 1291.951416,242.207458 1296.233398,242.303802 
	C1299.062134,242.367447 1301.893921,242.329605 1304.723877,242.300247 
	C1313.452637,242.209686 1319.320190,237.713318 1320.162354,230.491821 
	C1321.200562,221.589706 1316.254028,213.576248 1308.115234,211.713776 
	C1304.597290,210.908752 1300.864746,210.983002 1297.222656,210.791275 
	C1290.957520,210.461472 1287.319214,206.949326 1287.418579,201.185242 
	C1287.518311,195.393982 1291.379883,191.538345 1297.618042,192.356659 
	C1305.636963,193.408554 1313.530396,195.416794 1321.822510,197.153259 
z"/>
  <path fill="#1C9BD3" opacity="1.000000" stroke="none" d="
M848.969727,263.027466 
	C831.370361,245.979172 814.014343,229.187698 796.690674,212.362900 
	C794.906189,210.629745 793.002258,208.893372 791.701843,206.815491 
	C789.326782,203.020508 789.658936,199.057129 792.765442,195.800766 
	C795.809326,192.610016 799.624512,191.712723 803.684814,193.882553 
	C805.272522,194.730988 806.718750,195.944702 808.025391,197.203720 
	C836.088684,224.244614 864.131897,251.306442 892.139404,278.405182 
	C893.676392,279.892242 895.188354,281.570465 896.156250,283.446442 
	C898.212830,287.432709 897.569153,291.353607 894.302124,294.401001 
	C891.056091,297.428680 887.175476,297.902069 883.256470,295.581512 
	C881.844055,294.745148 880.583923,293.598907 879.392334,292.450806 
	C869.317566,282.744263 859.274780,273.004517 848.969727,263.027466 
z"/>
  <path fill="#1C9BD3" opacity="1.000000" stroke="none" d="
M505.815796,251.812241 
	C497.254547,255.375748 489.156860,259.267700 480.674194,261.935608 
	C474.822113,263.776154 469.784698,260.954498 467.008759,256.211792 
	C463.790161,250.712845 465.997986,244.825012 472.226349,243.330032 
	C476.403137,242.327469 480.809113,242.320862 485.044312,241.511658 
	C493.779907,239.842575 498.322205,234.575241 498.273712,226.570297 
	C498.225952,218.682343 493.577332,213.458847 484.865570,211.770508 
	C481.938416,211.203232 478.938477,210.944305 475.958466,210.730652 
	C469.595032,210.274384 465.450836,207.112518 465.277161,202.422379 
	C465.093933,197.474380 470.041168,191.425110 475.571442,191.365982 
	C480.441742,191.313919 485.492981,192.378967 490.177032,193.859512 
	C501.430695,197.416580 511.327179,202.992157 516.027710,214.768692 
	C520.494629,225.960052 518.372314,242.819351 505.815796,251.812241 
z"/>
  <path fill="#1B9BD3" opacity="1.000000" stroke="none" d="
M1477.117310,248.108856 
	C1467.476807,258.347839 1455.709595,261.951721 1442.409668,260.487213 
	C1439.407104,260.156555 1435.680298,258.521515 1433.933105,256.231140 
	C1429.614624,250.570343 1433.422241,243.889725 1440.637939,242.990036 
	C1446.039429,242.316559 1451.524902,241.591766 1456.698730,239.999115 
	C1463.123047,238.021576 1465.372192,232.685181 1465.364868,226.288254 
	C1465.357666,219.941010 1462.540039,215.102158 1456.511353,213.192062 
	C1451.338257,211.553085 1445.832886,210.880508 1440.430786,210.070602 
	C1435.073608,209.267410 1432.489136,207.008636 1432.342285,202.383087 
	C1432.183838,197.399216 1435.104980,193.829468 1440.047974,192.966660 
	C1456.760986,190.049347 1473.278809,197.141861 1481.036499,210.566681 
	C1487.782104,222.239990 1486.268921,237.570358 1477.117310,248.108856 
z"/>
  <path fill="#1A9AD3" opacity="1.000000" stroke="none" d="
M1122.367554,292.092346 
	C1119.094727,296.161438 1115.187256,297.685852 1110.622437,295.953918 
	C1105.948242,294.180450 1103.704590,290.407898 1103.701172,285.416687 
	C1103.682495,258.121887 1103.601440,230.826584 1103.753662,203.532639 
	C1103.792358,196.597153 1108.048828,192.443436 1114.058228,192.490479 
	C1120.358643,192.539810 1124.035278,196.443756 1124.055298,203.658768 
	C1124.130371,230.787125 1124.119385,257.915924 1124.018311,285.044128 
	C1124.009888,287.287415 1123.082397,289.527252 1122.367554,292.092346 
z"/>
  <path fill="#1D9BD3" opacity="1.000000" stroke="none" d="
M570.422729,291.318542 
	C569.930908,288.837189 569.358826,286.709839 569.348389,284.579712 
	C569.216797,257.769989 569.143127,230.959946 569.110962,204.149902 
	C569.102539,197.113251 572.429688,192.893402 578.045349,192.487961 
	C584.762207,192.003021 588.849548,196.101120 588.914795,203.658829 
	C589.078735,222.640228 589.160767,241.622391 589.255310,260.604340 
	C589.297607,269.096680 589.397156,277.590973 589.266174,286.081177 
	C589.190308,291.000000 587.026489,294.927795 582.065918,296.336487 
	C577.241943,297.706360 573.213013,296.202911 570.422729,291.318542 
z"/>
  <path fill="#1C9BD3" opacity="1.000000" stroke="none" d="
M964.049194,192.117294 
	C990.532898,192.117706 1016.525696,192.040100 1042.516602,192.225250 
	C1045.487427,192.246399 1048.955322,193.035599 1051.288330,194.720764 
	C1054.406372,196.972855 1055.307861,200.843170 1053.748657,204.665054 
	C1052.188110,208.490067 1049.472412,210.915848 1045.025391,210.936890 
	C1032.863770,210.994415 1020.702698,211.147202 1008.541138,211.205032 
	C992.712830,211.280304 976.884155,211.304398 961.055664,211.337814 
	C959.558411,211.340973 958.044312,211.380859 956.566772,211.185715 
	C951.052795,210.457474 947.358337,206.588058 947.386414,201.692535 
	C947.415894,196.547211 951.344421,192.622269 957.061768,192.180954 
	C959.215881,192.014694 961.391724,192.130188 964.049194,192.117294 
z"/>
  <path fill="#1B9BD3" opacity="1.000000" stroke="none" d="
M1249.597534,203.591736 
	C1249.815308,201.840683 1249.867798,200.476074 1250.266602,199.221573 
	C1251.714355,194.666656 1255.052856,192.441940 1259.687012,192.531647 
	C1264.400024,192.622894 1267.507202,195.193420 1268.605347,199.809402 
	C1269.022461,201.562653 1269.011353,203.444153 1269.008667,205.266937 
	C1268.971313,231.587646 1268.944702,257.908569 1268.776855,284.228577 
	C1268.759399,286.976471 1268.775513,290.651703 1267.153564,292.241150 
	C1264.824829,294.523376 1261.078735,296.190002 1257.801514,296.458557 
	C1253.913940,296.777100 1251.014160,293.911713 1250.090454,289.902740 
	C1249.573975,287.661011 1249.378540,285.298676 1249.381348,282.991089 
	C1249.413086,256.670258 1249.510986,230.349503 1249.597534,203.591736 
z"/>
  <path fill="#1D9BD4" opacity="1.000000" stroke="none" d="
M427.795105,243.999557 
	C427.795258,231.023819 427.772400,218.548035 427.816223,206.072479 
	C427.823792,203.921158 427.851227,201.710327 428.328308,199.632324 
	C429.403168,194.950516 432.704681,192.689285 437.351959,192.506073 
	C441.658417,192.336304 445.771118,195.784897 446.572510,200.137955 
	C446.870239,201.755173 446.811615,203.449615 446.809082,205.108688 
	C446.768646,231.390808 446.716278,257.672913 446.644440,283.954987 
	C446.639923,285.610413 446.622650,287.297211 446.319244,288.914612 
	C445.354401,294.058777 441.389343,297.142242 436.431793,296.764526 
	C431.656586,296.400757 428.199463,293.065826 428.044830,287.908722 
	C427.770721,278.767792 427.845428,269.616028 427.799316,260.468689 
	C427.772491,255.145782 427.794617,249.822632 427.795105,243.999557 
z"/>
  <path fill="#1799D2" opacity="1.000000" stroke="none" d="
M734.546875,254.000137 
	C734.546326,264.824188 734.586365,275.148438 734.531433,285.472198 
	C734.494629,292.391296 730.933655,296.573425 725.175720,296.667084 
	C719.158081,296.764954 715.545410,292.588837 715.537415,285.303864 
	C715.507690,258.161652 715.509949,231.019394 715.535095,203.877197 
	C715.541870,196.539825 719.053833,192.425308 725.098267,192.478012 
	C731.118774,192.530518 734.523376,196.640594 734.537170,204.044662 
	C734.567993,220.529755 734.546997,237.014969 734.546875,254.000137 
z"/>
  <path fill="#1A9AD3" opacity="1.000000" stroke="none" d="
M1414.975586,274.992310 
	C1414.975220,278.484680 1415.002686,281.479126 1414.969116,284.472870 
	C1414.884277,292.054077 1411.728149,295.912384 1405.559692,296.022827 
	C1399.100098,296.138428 1395.652954,292.356506 1395.601685,284.492981 
	C1395.512695,270.854095 1395.638184,257.213593 1395.703369,243.573898 
	C1395.767700,230.101517 1395.816528,216.628677 1395.976318,203.157288 
	C1396.052979,196.693680 1399.347656,192.985474 1404.914429,192.723618 
	C1410.994141,192.437637 1414.842041,196.263138 1414.934082,203.134811 
	C1415.072266,213.446060 1414.974609,223.760452 1414.975464,234.073517 
	C1414.976440,247.547043 1414.975586,261.020569 1414.975586,274.992310 
z"/>
  <path fill="#1C9BD3" opacity="1.000000" stroke="none" d="
M1008.064819,230.928162 
	C1009.117615,234.031891 1010.572510,236.845581 1010.600647,239.673477 
	C1010.754944,255.160950 1010.597107,270.652283 1010.465271,286.141571 
	C1010.409851,292.657349 1006.769470,296.591614 1001.015320,296.636902 
	C995.284729,296.682007 991.379822,292.743774 991.344482,286.237122 
	C991.259338,270.581451 991.446472,254.924469 991.431030,239.268112 
	C991.426941,235.163345 992.365723,231.563110 996.169922,229.507187 
	C1000.201599,227.328384 1004.180664,227.687637 1008.064819,230.928162 
z"/>
  <path fill="#1C9BD3" opacity="1.000000" stroke="none" d="
M898.201599,227.919525 
	C898.066284,231.726562 898.222778,235.091217 897.728882,238.357559 
	C896.978943,243.316483 892.882812,246.600449 887.989502,246.689896 
	C883.034119,246.780502 878.509033,243.635269 878.317749,238.508820 
	C877.853149,226.054291 877.806519,213.561462 878.238953,201.106567 
	C878.430176,195.597244 882.753784,192.599243 888.161743,192.675858 
	C893.493469,192.751373 897.457581,195.838196 897.809570,201.481094 
	C898.347595,210.106369 898.110291,218.780014 898.201599,227.919525 
z"/>
  <path fill="#1C9BD3" opacity="1.000000" stroke="none" d="
M1150.726929,211.319214 
	C1143.706421,209.969849 1140.788330,206.709396 1141.112793,201.029343 
	C1141.427612,195.520432 1145.141724,192.246002 1151.690308,192.147415 
	C1163.171631,191.974548 1174.655884,191.935547 1186.138794,191.959320 
	C1192.664185,191.972824 1196.822021,195.592911 1197.001709,201.116028 
	C1197.205078,207.368561 1193.270508,211.231079 1186.099854,211.315002 
	C1174.452026,211.451309 1162.801270,211.345566 1150.726929,211.319214 
z"/>
  <path fill="#1C9BD3" opacity="1.000000" stroke="none" d="
M1155.128174,278.028870 
	C1165.921631,278.029419 1176.233643,277.995941 1186.545410,278.042511 
	C1193.565674,278.074188 1197.379639,281.485840 1197.362183,287.563690 
	C1197.344849,293.584564 1193.511963,297.120819 1186.536255,297.190155 
	C1175.892700,297.295868 1165.247437,297.232544 1154.602905,297.218506 
	C1146.000122,297.207153 1141.710693,293.964081 1141.710327,287.519012 
	C1141.709961,281.057678 1145.789673,278.064819 1155.128174,278.028870 
z"/>
  <path fill="#1F9CD4" opacity="1.000000" stroke="none" d="
M806.413940,293.339966 
	C802.931580,296.587250 799.325073,297.580261 795.189880,295.624695 
	C790.985413,293.636444 789.804932,289.908478 789.823608,285.718292 
	C789.874695,274.250214 789.976440,262.780579 790.247498,251.316010 
	C790.380371,245.699295 794.053406,242.202667 799.333374,242.141129 
	C804.518982,242.080688 808.625793,245.633102 808.703674,251.090500 
	C808.876770,263.221619 808.741821,275.359833 808.516663,287.491119 
	C808.482056,289.354645 807.300232,291.196869 806.413940,293.339966 
z"/>
  <path fill="#1C9BD3" opacity="1.000000" stroke="none" d="
M1181.997803,241.129730 
	C1183.338257,249.844391 1180.092285,254.063583 1171.957764,254.273514 
	C1165.322144,254.444748 1158.675537,254.428329 1152.039307,254.268448 
	C1145.435303,254.109344 1141.286499,250.061432 1141.438843,244.284576 
	C1141.588623,238.609207 1145.517578,234.931335 1152.066406,234.766327 
	C1158.868042,234.594955 1165.679199,234.642456 1172.482910,234.770874 
	C1176.744141,234.851303 1180.271606,236.394791 1181.997803,241.129730 
z"/>
</svg>